<svg width="45" height="25" viewBox="0 0 45 25" fill="none" xmlns="http://www.w3.org/2000/svg">
<title>GDG Icon</title>
<path d="M19.1089 2.36861C20.6308 4.48836 20.1416 7.47775 18.0219 8.99962L7.91232 16.2829C5.79257 17.8047 2.80319 17.3156 1.28132 15.1958C-0.24055 13.0761 0.248622 10.0867 2.36837 8.5648L12.4779 1.28156C14.652 -0.240306 17.5871 0.248867 19.1089 2.36861Z" fill="#EA4335"/>
<path d="M12.4736 0.809832C14.7968 -0.651543 17.8313 -0.0887805 19.4303 2.13838C21.0794 4.43534 20.5501 7.67135 18.253 9.32096L8.14383 16.6044L8.14337 16.6048C5.84624 18.254 2.60937 17.7246 0.959867 15.4271C-0.689353 13.1299 -0.159886 9.89306 2.13764 8.24355L12.2463 0.961063L12.2509 0.957855L12.4736 0.809832ZM18.7873 2.59986C17.3942 0.659535 14.7048 0.206562 12.7051 1.60632L12.7046 1.60586L2.59958 8.88651L2.59913 8.88697C0.657262 10.2812 0.208341 13.0232 1.60283 14.9656C2.99707 16.9074 5.73909 17.3563 7.68142 15.9619L17.7906 8.67891L17.791 8.67846C19.733 7.28421 20.1818 4.54221 18.7873 2.59986Z" fill="#1E1E1E"/>
<path d="M1.28132 9.65231C-0.24055 11.7721 0.248622 14.7614 2.36837 16.2833L12.4779 23.5665C14.5977 25.0884 17.5871 24.5992 19.1089 22.4795C20.6308 20.3597 20.1416 17.3704 18.0219 15.8485L7.91232 8.56526C5.79257 7.04339 2.80319 7.53256 1.28132 9.65231Z" fill="#4285F4"/>
<path d="M0.959825 9.42151C2.55779 7.19577 5.64534 6.62907 7.92518 8.09525L8.14332 8.24373L8.14378 8.24419L18.2534 15.5271H18.2529C20.5502 17.1767 21.0794 20.4132 19.4302 22.7102C17.7808 25.0076 14.5443 25.5371 12.2472 23.888L12.2463 23.8875L2.13714 16.6045V16.6041C-0.15993 14.9545 -0.689234 11.7185 0.959825 9.42151ZM7.68138 8.8867C5.73903 7.4922 2.99703 7.94107 1.60279 9.88299C0.20829 11.8253 0.657191 14.5673 2.59908 15.9616L2.59954 15.962L12.7087 23.245L12.8929 23.3701C14.8209 24.6099 17.4365 24.1299 18.7873 22.2487C20.1818 20.3064 19.7329 17.5644 17.791 16.1701L17.7905 16.1696L7.68138 8.8867Z" fill="#1E1E1E"/>
<path d="M43.6221 9.65231C45.144 11.7721 44.6548 14.7614 42.5351 16.2833L32.4255 23.5665C30.3058 25.0884 27.3164 24.5992 25.7945 22.4795C24.2726 20.3597 24.7618 17.3704 26.8816 15.8485L36.9911 8.56526C39.1109 7.04339 42.0459 7.53256 43.6221 9.65231Z" fill="#F9AB00"/>
<path d="M36.7604 8.24379C38.9891 6.64375 42.041 7.09681 43.7762 9.20663L43.9398 9.41606L43.9439 9.42156H43.9435C45.5926 11.7185 45.0633 14.9545 42.7662 16.6041L32.657 23.8876L32.6566 23.888C30.3594 25.5372 27.1226 25.0078 25.4731 22.7102C23.8238 20.4131 24.3533 17.1762 26.6508 15.5267L36.7595 8.24425L36.7604 8.24379ZM43.3 9.88305C41.8478 7.93608 39.159 7.49604 37.2219 8.88675L27.1128 16.1697L27.1123 16.1702C25.1704 17.5644 24.7215 20.3064 26.116 22.2488C27.5103 24.1906 30.2523 24.6395 32.1946 23.245L42.3038 15.9621L42.3042 15.9616C44.2461 14.5674 44.695 11.8254 43.3005 9.88305H43.3Z" fill="#1E1E1E"/>
<path d="M25.7399 2.36861C24.2181 4.48836 24.7072 7.47775 26.827 8.99962L36.9365 16.2829C39.0563 17.8047 42.0457 17.3156 43.5676 15.1958C45.0894 13.0761 44.6003 10.0867 42.4805 8.5648L32.3709 1.28156C30.2512 -0.240306 27.3162 0.248867 25.7399 2.36861Z" fill="#34A853"/>
<path d="M25.5862 1.92288C27.2654 -0.118716 30.1774 -0.608991 32.3833 0.811553L32.6019 0.960035L32.6024 0.960494L42.712 8.24344H42.7115C45.0088 9.89301 45.538 13.1295 43.8889 15.4265C42.2394 17.7239 39.0029 18.2534 36.7058 16.6043L36.7049 16.6038L26.5958 9.32085V9.32039C24.2987 7.67078 23.7694 4.43476 25.4184 2.13781L25.4221 2.13231L25.5862 1.92288ZM32.14 1.603C30.2029 0.212243 27.5136 0.652116 26.0614 2.59929C24.6669 4.54163 25.1158 7.28363 27.0577 8.67789L27.0582 8.67834L37.1673 15.9613L37.3515 16.0864C39.2796 17.3262 41.8952 16.8462 43.2459 14.965C44.6404 13.0227 44.1915 10.2807 42.2496 8.8864L42.2491 8.88594L32.14 1.603Z" fill="#1E1E1E"/>
</svg>
